<?xml version="1.0" encoding="UTF-8" standalone="no"?>
<svg width="250px" height="250px" viewBox="0 0 250 250" version="1.1" xmlns="http://www.w3.org/2000/svg" xmlns:xlink="http://www.w3.org/1999/xlink">
    <!-- Generator: Sketch 47.1 (45422) - http://www.bohemiancoding.com/sketch -->
    <title>TEXAM</title>
    <desc>Created with Sketch.</desc>
    <defs></defs>
    <g id="Page-1" stroke="none" stroke-width="1" fill="none" fill-rule="evenodd">
        <g id="TEXAM" fill-rule="nonzero">
            <g id="TAM-LogoBox" transform="translate(0.000000, 23.000000)">
                <polygon id="Shape" fill="#FFFFFF" points="246.819853 66.8566176 222.242647 66.8566176 220.827206 66.8566176 220.183824 68.1433824 202.371324 105.238971 184.485294 68.125 183.860294 66.8566176 182.444853 66.8566176 158.694853 66.8566176 156.452206 66.8566176 156.452206 69.1176471 156.452206 81.7647059 156.452206 84.0257353 158.694853 84.0257353 162.757353 84.0257353 162.757353 137.150735 158.363971 137.150735 156.102941 137.150735 156.102941 139.411765 156.102941 152.058824 156.102941 154.319853 158.363971 154.319853 185.036765 154.319853 187.297794 154.319853 187.297794 152.058824 187.297794 139.411765 187.297794 137.150735 185.036765 137.150735 180.422794 137.150735 180.422794 99.4485294 200.349265 140.533088 202.371324 144.724265 204.430147 140.533088 224.558824 99.3566176 224.558824 137.150735 220.165441 137.150735 217.886029 137.150735 217.886029 139.411765 217.886029 152.058824 217.886029 154.319853 220.165441 154.319853 246.819853 154.319853 249.080882 154.319853 249.080882 152.058824 249.080882 139.411765 249.080882 137.150735 246.819853 137.150735 242.224265 137.150735 242.224265 84.0257353 246.819853 84.0257353 249.080882 84.0257353 249.080882 81.7647059 249.080882 69.1176471 249.080882 66.8566176"></polygon>
                <path d="M91.9117647,137.095588 L84.8161765,137.095588 L61.7279412,83.7867647 L66.1764706,83.7867647 L66.1764706,66.5441176 L29.1176471,66.5441176 L29.1176471,83.7316176 L34.2279412,83.7316176 L11.1580882,137.040441 L1.54411765,137.040441 L1.54411765,154.227941 L35.1838235,154.227941 L35.1838235,137.040441 L30.2941176,137.040441 L34.1360294,128.161765 L61.8933824,128.161765 L65.7169118,137.040441 L60.5514706,137.040441 L60.5514706,154.227941 L94.2095588,154.227941 L94.2095588,137.040441 L91.9117647,137.095588 Z M54.4485294,111.047794 L41.5808824,111.047794 L48.0147059,96.1397059 L54.4485294,111.047794 Z" id="Shape" fill="#FFFFFF"></path>
                <polygon id="Shape" fill="#FFFFFF" points="218.584559 0.147058824 31.4338235 0.147058824 28.8419118 0.147058824 28.8419118 2.73897059 28.8419118 52.7389706 28.8419118 55.3308824 31.4338235 55.3308824 63.75 55.3308824 66.3419118 55.3308824 66.3419118 52.7389706 66.3419118 34.1727941 106.268382 34.1727941 106.268382 165.919118 87.6838235 165.919118 85.1102941 165.919118 85.1102941 168.511029 85.1102941 200.827206 85.1102941 203.419118 87.6838235 203.419118 162.316176 203.419118 164.908088 203.419118 164.908088 200.827206 164.908088 168.511029 164.908088 165.919118 162.316176 165.919118 143.768382 165.919118 143.768382 34.1727941 183.455882 34.1727941 183.455882 52.5 183.455882 55.0919118 186.047794 55.0919118 218.584559 55.0919118 221.176471 55.0919118 221.176471 52.5 221.176471 2.73897059 221.176471 0.147058824"></polygon>
                <polygon id="Shape" fill="#B1B3B6" points="149.301471 181.305147 157.205882 173.161765 157.205882 195.477941 149.301471 187.922794"></polygon>
                <polygon id="Shape" fill="#B1B3B6" points="136.139706 173.75 128.216912 181.544118 128.216912 18.6397059 136.139706 26.5257353"></polygon>
                <polygon id="Shape" fill="#B1B3B6" points="44.6875 15.7720588 36.5625 7.86764706 209.522059 7.86764706 199.301471 15.7720588"></polygon>
                <polygon id="Shape" fill="#B1B3B6" points="213.713235 47.8492647 205.808824 40.2941176 205.808824 20.1838235 213.713235 12.0588235"></polygon>
            </g>
        </g>
    </g>
</svg>